<svg width="797" height="581" viewBox="0 0 797 581" fill="none" xmlns="http://www.w3.org/2000/svg">
<rect x="638.269" y="181.738" width="147.022" height="268.618" rx="11.5" transform="rotate(3 638.269 181.738)" fill="white" stroke="#1A78C2" stroke-width="7"/>
<rect x="646.051" y="250.346" width="77.011" height="18.915" rx="9.45749" transform="rotate(3 646.051 250.346)" fill="#D9D9D9"/>
<path d="M639.192 381.22L693.161 384.049C698.377 384.322 702.384 388.772 702.11 393.988V393.988C701.837 399.204 697.387 403.211 692.171 402.938L648.188 400.633C642.673 400.344 638.436 395.638 638.725 390.123L639.192 381.22Z" fill="#D9D9D9"/>
<path d="M640.889 348.839L718.602 352.912C724.117 353.201 728.354 357.906 728.065 363.422L727.485 374.481C727.196 379.996 722.491 384.233 716.976 383.944L639.263 379.871L640.889 348.839Z" fill="#D9D9D9"/>
<path d="M641.426 338.587C641.716 333.072 646.421 328.835 651.936 329.124L709.411 332.136C714.627 332.41 718.634 336.86 718.36 342.076V342.076C718.087 347.292 713.637 351.299 708.421 351.025L640.96 347.49L641.426 338.587Z" fill="#D9D9D9"/>
<rect x="696.037" y="225.907" width="77.011" height="18.915" rx="9.45749" transform="rotate(3 696.037 225.907)" fill="#1A78C2"/>
<rect x="686.35" y="410.75" width="77.011" height="18.915" rx="9.45749" transform="rotate(3 686.35 410.75)" fill="#1A78C2"/>
<path d="M682.18 309.606C682.469 304.091 687.174 299.854 692.69 300.143L769.053 304.145L768.375 317.095C768.086 322.611 763.38 326.847 757.865 326.558L691.488 323.08C685.972 322.791 681.736 318.085 682.025 312.57L682.18 309.606Z" fill="#1A78C2"/>
<path d="M692.714 289.321C692.987 284.105 697.437 280.098 702.653 280.371L760.128 283.383C765.643 283.672 769.88 288.378 769.591 293.893L769.124 302.796L701.663 299.26C696.447 298.987 692.44 294.537 692.714 289.321V289.321Z" fill="#1A78C2"/>
<rect x="664.485" y="440.722" width="67.5535" height="5.40428" rx="2.70214" transform="rotate(3 664.485 440.722)" fill="#1A78C2"/>
<rect x="660.309" y="184.8" width="101.33" height="16.701" rx="8.3505" transform="rotate(3 660.309 184.8)" fill="#1A78C2"/>
<rect x="660.309" y="184.8" width="101.33" height="7.77841" transform="rotate(3 660.309 184.8)" fill="#1A78C2"/>
<rect x="303.997" y="271.655" width="270.214" height="17.5639" transform="rotate(3 303.997 271.655)" fill="#1A78C2"/>
<path d="M297.518 277.309C296.287 278.417 296.187 280.314 297.296 281.545L315.363 301.61C316.471 302.842 318.368 302.941 319.599 301.832C320.831 300.724 320.93 298.827 319.821 297.596L303.762 279.76L321.598 263.701C322.829 262.592 322.928 260.695 321.82 259.464C320.711 258.233 318.814 258.133 317.583 259.242L297.518 277.309ZM301.032 276.613L299.682 276.542L299.368 282.534L300.718 282.605L301.032 276.613Z" fill="white"/>
<path d="M331.248 279.076C330.017 280.185 329.918 282.082 331.026 283.313L349.093 303.378C350.202 304.609 352.099 304.709 353.33 303.6C354.561 302.491 354.66 300.595 353.552 299.363L337.493 281.528L355.328 265.469C356.559 264.36 356.659 262.463 355.55 261.232C354.442 260.001 352.545 259.901 351.313 261.01L331.248 279.076ZM334.762 278.381L333.413 278.31L333.099 284.302L334.448 284.372L334.762 278.381Z" fill="white"/>
<path d="M364.979 280.844C363.748 281.953 363.648 283.85 364.757 285.081L382.823 305.146C383.932 306.377 385.829 306.476 387.06 305.368C388.291 304.259 388.391 302.362 387.282 301.131L371.223 283.295L389.059 267.236C390.29 266.128 390.389 264.231 389.281 263C388.172 261.768 386.275 261.669 385.044 262.777L364.979 280.844ZM368.492 280.148L367.143 280.078L366.829 286.069L368.178 286.14L368.492 280.148Z" fill="white"/>
<path d="M398.709 282.612C397.478 283.72 397.379 285.617 398.487 286.849L416.554 306.914C417.663 308.145 419.559 308.244 420.791 307.136C422.022 306.027 422.121 304.13 421.013 302.899L404.954 285.063L422.789 269.004C424.02 267.895 424.12 265.999 423.011 264.767C421.903 263.536 420.006 263.437 418.774 264.545L398.709 282.612ZM402.223 281.916L400.874 281.845L400.56 287.837L401.909 287.908L402.223 281.916Z" fill="white"/>
<path d="M432.44 284.38C431.209 285.488 431.109 287.385 432.218 288.616L450.284 308.681C451.393 309.913 453.29 310.012 454.521 308.903C455.752 307.795 455.852 305.898 454.743 304.666L438.684 286.831L456.52 270.772C457.751 269.663 457.85 267.766 456.742 266.535C455.633 265.304 453.736 265.204 452.505 266.313L432.44 284.38ZM435.954 283.684L434.604 283.613L434.29 289.605L435.64 289.676L435.954 283.684Z" fill="white"/>
<path d="M466.17 286.147C464.939 287.256 464.84 289.153 465.948 290.384L484.015 310.449C485.123 311.68 487.02 311.78 488.252 310.671C489.483 309.562 489.582 307.665 488.474 306.434L472.414 288.599L490.25 272.54C491.481 271.431 491.581 269.534 490.472 268.303C489.363 267.071 487.466 266.972 486.235 268.081L466.17 286.147ZM469.684 285.451L468.335 285.381L468.021 291.373L469.37 291.443L469.684 285.451Z" fill="white"/>
<path d="M499.901 287.915C498.67 289.024 498.57 290.921 499.679 292.152L517.745 312.217C518.854 313.448 520.751 313.547 521.982 312.439C523.213 311.33 523.313 309.433 522.204 308.202L506.145 290.366L523.981 274.307C525.212 273.199 525.311 271.302 524.203 270.071C523.094 268.839 521.197 268.74 519.966 269.848L499.901 287.915ZM503.414 287.219L502.065 287.149L501.751 293.14L503.1 293.211L503.414 287.219Z" fill="white"/>
<path d="M533.631 289.683C532.4 290.791 532.3 292.688 533.409 293.92L551.476 313.985C552.584 315.216 554.481 315.315 555.712 314.207C556.944 313.098 557.043 311.201 555.935 309.97L539.875 292.134L557.711 276.075C558.942 274.966 559.042 273.07 557.933 271.838C556.824 270.607 554.927 270.508 553.696 271.616L533.631 289.683ZM537.145 288.987L535.796 288.916L535.482 294.908L536.831 294.979L537.145 288.987Z" fill="white"/>
<path d="M567.362 291.45C566.13 292.559 566.031 294.456 567.14 295.687L585.206 315.752C586.315 316.983 588.212 317.083 589.443 315.974C590.674 314.866 590.774 312.969 589.665 311.737L573.606 293.902L591.441 277.843C592.673 276.734 592.772 274.837 591.663 273.606C590.555 272.375 588.658 272.275 587.427 273.384L567.362 291.45ZM570.875 290.755L569.526 290.684L569.212 296.676L570.561 296.746L570.875 290.755Z" fill="white"/>
<rect x="586.779" y="348.709" width="270.214" height="17.5639" transform="rotate(-177 586.779 348.709)" fill="#1A78C2"/>
<path d="M593.258 343.056C594.489 341.947 594.589 340.05 593.48 338.819L575.414 318.754C574.305 317.523 572.408 317.423 571.177 318.532C569.946 319.64 569.846 321.537 570.955 322.769L587.014 340.604L569.178 356.663C567.947 357.772 567.848 359.669 568.956 360.9C570.065 362.131 571.962 362.231 573.193 361.122L593.258 343.056ZM589.744 343.751L591.094 343.822L591.408 337.83L590.058 337.76L589.744 343.751Z" fill="white"/>
<path d="M559.528 341.288C560.759 340.179 560.858 338.282 559.75 337.051L541.683 316.986C540.575 315.755 538.678 315.655 537.446 316.764C536.215 317.873 536.116 319.77 537.224 321.001L553.284 338.836L535.448 354.895C534.217 356.004 534.117 357.901 535.226 359.132C536.335 360.364 538.232 360.463 539.463 359.354L559.528 341.288ZM556.014 341.984L557.363 342.054L557.677 336.062L556.328 335.992L556.014 341.984Z" fill="white"/>
<path d="M525.797 339.52C527.029 338.411 527.128 336.515 526.019 335.283L507.953 315.218C506.844 313.987 504.947 313.888 503.716 314.996C502.485 316.105 502.385 318.002 503.494 319.233L519.553 337.069L501.718 353.128C500.486 354.236 500.387 356.133 501.496 357.365C502.604 358.596 504.501 358.695 505.732 357.587L525.797 339.52ZM522.284 340.216L523.633 340.287L523.947 334.295L522.598 334.224L522.284 340.216Z" fill="white"/>
<path d="M492.067 337.752C493.298 336.644 493.397 334.747 492.289 333.515L474.222 313.451C473.114 312.219 471.217 312.12 469.985 313.229C468.754 314.337 468.655 316.234 469.763 317.465L485.822 335.301L467.987 351.36C466.756 352.469 466.656 354.365 467.765 355.597C468.874 356.828 470.771 356.927 472.002 355.819L492.067 337.752ZM488.553 338.448L489.902 338.519L490.216 332.527L488.867 332.456L488.553 338.448Z" fill="white"/>
<path d="M458.336 335.985C459.568 334.876 459.667 332.979 458.558 331.748L440.492 311.683C439.383 310.452 437.486 310.352 436.255 311.461C435.024 312.569 434.924 314.466 436.033 315.698L452.092 333.533L434.257 349.592C433.025 350.701 432.926 352.598 434.035 353.829C435.143 355.06 437.04 355.16 438.271 354.051L458.336 335.985ZM454.823 336.68L456.172 336.751L456.486 330.759L455.137 330.688L454.823 336.68Z" fill="white"/>
<path d="M424.606 334.217C425.837 333.108 425.937 331.211 424.828 329.98L406.761 309.915C405.653 308.684 403.756 308.584 402.525 309.693C401.293 310.802 401.194 312.699 402.303 313.93L418.362 331.765L400.526 347.825C399.295 348.933 399.195 350.83 400.304 352.061C401.413 353.293 403.31 353.392 404.541 352.283L424.606 334.217ZM421.092 334.913L422.441 334.983L422.755 328.992L421.406 328.921L421.092 334.913Z" fill="white"/>
<path d="M390.875 332.449C392.107 331.34 392.206 329.444 391.097 328.212L373.031 308.147C371.922 306.916 370.025 306.817 368.794 307.925C367.563 309.034 367.463 310.931 368.572 312.162L384.631 329.998L366.796 346.057C365.564 347.165 365.465 349.062 366.574 350.294C367.682 351.525 369.579 351.624 370.81 350.516L390.875 332.449ZM387.362 333.145L388.711 333.216L389.025 327.224L387.676 327.153L387.362 333.145Z" fill="white"/>
<path d="M357.145 330.681C358.376 329.573 358.476 327.676 357.367 326.445L339.3 306.38C338.192 305.148 336.295 305.049 335.064 306.158C333.832 307.266 333.733 309.163 334.842 310.394L350.901 328.23L333.065 344.289C331.834 345.398 331.735 347.295 332.843 348.526C333.952 349.757 335.849 349.857 337.08 348.748L357.145 330.681ZM353.631 331.377L354.981 331.448L355.295 325.456L353.945 325.385L353.631 331.377Z" fill="white"/>
<path d="M323.414 328.914C324.646 327.805 324.745 325.908 323.637 324.677L305.57 304.612C304.461 303.381 302.564 303.281 301.333 304.39C300.102 305.498 300.002 307.395 301.111 308.627L317.17 326.462L299.335 342.521C298.103 343.63 298.004 345.527 299.113 346.758C300.221 347.989 302.118 348.089 303.35 346.98L323.414 328.914ZM319.901 329.609L321.25 329.68L321.564 323.688L320.215 323.618L319.901 329.609Z" fill="white"/>
<path d="M20.3774 279.782C102.838 322.471 164.021 319.939 293.294 279.782" stroke="#1A78C2" stroke-width="8"/>
<path d="M28.4839 239.25C105.638 276.371 162.883 274.169 283.836 239.25" stroke="#1A78C2" stroke-width="8"/>
<path d="M49 204C113.962 234.223 162.16 232.43 264 204" stroke="#1A78C2" stroke-width="8"/>
<path d="M78.4734 173.047C124.194 193.464 158.117 192.253 229.793 173.047" stroke="#1A78C2" stroke-width="8"/>
<path d="M43.3457 366.25C111.519 395.947 162.1 394.186 268.974 366.25" stroke="#1A78C2" stroke-width="8"/>
<path d="M64.9629 393.272C119.256 422.969 159.54 421.207 244.655 393.272" stroke="#1A78C2" stroke-width="8"/>
<path d="M21.7285 324.367C102.556 359.632 162.527 357.541 289.24 324.367" stroke="#1A78C2" stroke-width="8"/>
<path d="M290.623 290.973C290.623 367.105 230.134 428.823 155.516 428.823C80.8987 428.823 20.4092 367.105 20.4092 290.973C20.4092 214.84 80.8987 153.122 155.516 153.122C230.134 153.122 290.623 214.84 290.623 290.973Z" stroke="#1A78C2" stroke-width="10"/>
<rect x="49.725" y="365.96" width="714.188" height="196.233" rx="17" transform="rotate(-27 49.725 365.96)" fill="white" fill-opacity="0.75" stroke="#F42929" stroke-width="10"/>
<path d="M204.9 391.883L190.661 399.138C189.727 397.773 188.665 396.652 187.477 395.775C186.289 394.897 184.998 394.288 183.604 393.946C182.21 393.604 180.737 393.553 179.186 393.794C177.644 394.005 176.076 394.518 174.481 395.33C171.652 396.771 169.566 398.707 168.222 401.138C166.896 403.559 166.351 406.36 166.584 409.541C166.837 412.712 167.912 416.158 169.807 419.879C171.781 423.752 173.985 426.717 176.421 428.776C178.867 430.806 181.434 431.973 184.124 432.277C186.822 432.552 189.558 431.983 192.329 430.571C193.886 429.778 195.199 428.858 196.268 427.811C197.356 426.754 198.19 425.6 198.771 424.347C199.362 423.066 199.69 421.715 199.755 420.295C199.83 418.846 199.633 417.356 199.164 415.825L213.446 408.656C214.515 411.364 215.061 414.29 215.085 417.434C215.128 420.569 214.594 423.722 213.484 426.894C212.365 430.047 210.558 433.024 208.063 435.826C205.588 438.618 202.348 441.034 198.342 443.075C193.064 445.764 187.747 447.015 182.39 446.827C177.043 446.61 172.027 444.885 167.343 441.652C162.659 438.419 158.687 433.604 155.427 427.206C152.157 420.789 150.61 414.726 150.786 409.017C150.962 403.308 152.548 398.231 155.545 393.787C158.541 389.343 162.631 385.801 167.814 383.16C171.345 381.361 174.861 380.19 178.364 379.649C181.857 379.089 185.221 379.168 188.457 379.887C191.683 380.587 194.7 381.931 197.507 383.921C200.314 385.91 202.778 388.564 204.9 391.883ZM231.915 424.964L202.2 366.643L242.865 345.924L248.697 357.371L222.129 370.909L228.223 382.869L252.713 370.391L258.56 381.867L234.07 394.345L240.179 406.334L266.747 392.796L272.58 404.244L231.915 424.964ZM301.327 316.135L331.043 374.456L319.083 380.55L278.724 358.716L278.354 358.904L295.504 392.564L281.408 399.746L251.692 341.426L263.823 335.245L303.897 357.152L304.381 356.906L287.26 323.303L301.327 316.135ZM350.623 313.042C349.37 311.05 347.698 309.858 345.608 309.464C343.527 309.041 341.111 309.531 338.358 310.934C336.535 311.862 335.138 312.874 334.164 313.967C333.191 315.061 332.614 316.18 332.432 317.325C332.24 318.451 332.406 319.55 332.928 320.623C333.335 321.516 333.898 322.198 334.616 322.669C335.354 323.13 336.223 323.428 337.225 323.564C338.235 323.67 339.369 323.643 340.626 323.481C341.882 323.319 343.248 323.041 344.722 322.649L350.314 321.234C353.519 320.391 356.488 319.93 359.223 319.852C361.976 319.764 364.47 320.06 366.705 320.738C368.959 321.407 370.954 322.483 372.69 323.966C374.426 325.449 375.898 327.353 377.107 329.679C378.964 333.371 379.645 337.006 379.148 340.583C378.651 344.16 377.033 347.532 374.293 350.697C371.573 353.853 367.783 356.669 362.923 359.145C358.044 361.631 353.419 363.067 349.048 363.453C344.677 363.838 340.726 363.054 337.195 361.098C333.664 359.143 330.709 355.902 328.331 351.375L341.829 344.497C342.9 346.319 344.201 347.628 345.732 348.427C347.263 349.225 348.971 349.55 350.857 349.403C352.761 349.245 354.748 348.639 356.817 347.585C358.716 346.618 360.199 345.539 361.267 344.35C362.353 343.15 363.025 341.911 363.282 340.632C363.54 339.353 363.378 338.121 362.797 336.934C362.217 335.842 361.396 335.077 360.335 334.637C359.265 334.178 357.891 334.017 356.215 334.154C354.548 334.262 352.526 334.611 350.148 335.2L343.329 336.882C337.689 338.297 332.759 338.453 328.539 337.351C324.309 336.23 321.077 333.453 318.842 329.02C316.985 325.423 316.342 321.769 316.915 318.058C317.487 314.346 319.114 310.851 321.795 307.572C324.476 304.293 328.029 301.526 332.452 299.272C336.97 296.97 341.282 295.741 345.388 295.586C349.503 295.403 353.183 296.218 356.427 298.033C359.671 299.847 362.236 302.558 364.121 306.164L350.623 313.042ZM433.033 285.759C436.302 292.176 437.839 298.244 437.645 303.962C437.45 309.681 435.835 314.772 432.801 319.236C429.785 323.69 425.667 327.247 420.446 329.907C415.207 332.577 409.894 333.813 404.509 333.616C399.123 333.418 394.065 331.727 389.333 328.542C384.611 325.329 380.62 320.523 377.36 314.125C374.091 307.709 372.544 301.646 372.72 295.936C372.915 290.218 374.52 285.131 377.535 280.677C380.551 276.223 384.678 272.662 389.918 269.992C395.139 267.332 400.437 266.091 405.813 266.269C411.207 266.438 416.275 268.124 421.016 271.328C425.758 274.532 429.763 279.342 433.033 285.759ZM418.623 293.101C416.689 289.304 414.513 286.371 412.096 284.303C409.698 282.225 407.149 281.024 404.45 280.702C401.77 280.369 399.025 280.919 396.215 282.351C393.425 283.773 391.366 285.67 390.041 288.044C388.715 290.417 388.179 293.189 388.432 296.36C388.703 299.522 389.807 303.001 391.741 306.798C393.676 310.595 395.842 313.532 398.24 315.611C400.657 317.679 403.215 318.875 405.914 319.197C408.614 319.52 411.358 318.97 414.149 317.548C416.959 316.116 419.017 314.219 420.324 311.855C421.649 309.482 422.176 306.715 421.904 303.553C421.652 300.382 420.558 296.898 418.623 293.101ZM456.12 310.726L426.404 252.405L450.496 240.13C454.862 237.906 459.032 236.773 463.005 236.734C466.988 236.665 470.588 237.653 473.805 239.696C477.013 241.72 479.632 244.726 481.663 248.713C483.724 252.756 484.592 256.642 484.268 260.371C483.934 264.08 482.521 267.502 480.029 270.637C477.527 273.753 474.055 276.443 469.613 278.706L454.378 286.469L448.719 275.363L461.334 268.935C463.461 267.852 465.096 266.672 466.239 265.396C467.391 264.091 468.048 262.681 468.208 261.164C468.358 259.629 467.974 257.96 467.055 256.156C466.136 254.353 465.006 253.051 463.666 252.251C462.316 251.432 460.77 251.096 459.028 251.243C457.275 251.371 455.345 251.971 453.238 253.045L446.29 256.585L470.216 303.544L456.12 310.726ZM475.373 267.342L503.477 286.596L488.1 294.432L460.28 275.032L475.373 267.342ZM519.932 226.775C518.678 224.783 517.006 223.591 514.916 223.197C512.836 222.774 510.419 223.264 507.667 224.667C505.844 225.595 504.446 226.607 503.473 227.7C502.5 228.794 501.922 229.913 501.74 231.058C501.549 232.184 501.714 233.283 502.237 234.356C502.644 235.249 503.207 235.93 503.925 236.401C504.662 236.863 505.532 237.161 506.533 237.296C507.544 237.403 508.678 237.375 509.934 237.213C511.191 237.051 512.556 236.774 514.03 236.382L519.623 234.967C522.827 234.124 525.797 233.663 528.531 233.585C531.284 233.497 533.779 233.793 536.013 234.471C538.267 235.14 540.262 236.216 541.998 237.699C543.734 239.182 545.207 241.086 546.415 243.411C548.273 247.104 548.953 250.739 548.456 254.316C547.96 257.893 546.341 261.265 543.602 264.43C540.882 267.586 537.091 270.402 532.231 272.878C527.352 275.364 522.727 276.8 518.357 277.186C513.986 277.571 510.035 276.787 506.504 274.831C502.973 272.876 500.018 269.635 497.639 265.108L511.137 258.23C512.209 260.051 513.51 261.361 515.041 262.16C516.571 262.958 518.28 263.283 520.165 263.136C522.07 262.978 524.057 262.372 526.126 261.318C528.025 260.351 529.508 259.272 530.575 258.082C531.662 256.883 532.334 255.644 532.591 254.365C532.848 253.086 532.686 251.854 532.106 250.667C531.526 249.575 530.705 248.81 529.644 248.37C528.573 247.911 527.2 247.75 525.524 247.887C523.857 247.995 521.835 248.344 519.457 248.933L512.638 250.615C506.998 252.03 502.068 252.186 497.847 251.084C493.618 249.963 490.385 247.186 488.15 242.753C486.293 239.156 485.651 235.502 486.223 231.79C486.795 228.079 488.422 224.584 491.104 221.305C493.785 218.026 497.337 215.259 501.761 213.005C506.279 210.703 510.591 209.474 514.697 209.319C518.812 209.136 522.492 209.951 525.736 211.766C528.98 213.58 531.545 216.291 533.43 219.897L519.932 226.775ZM562.153 256.699L532.438 198.379L546.534 191.197L558.461 214.604L581.441 202.895L569.514 179.487L583.582 172.32L613.298 230.64L599.23 237.808L587.289 214.371L564.308 226.081L576.249 249.517L562.153 256.699ZM606.52 160.632L636.236 218.952L622.14 226.135L592.424 167.814L606.52 160.632ZM645.085 214.444L615.369 156.123L639.46 143.848C643.827 141.623 648.031 140.557 652.072 140.651C656.122 140.715 659.785 141.826 663.06 143.983C666.326 146.122 668.979 149.194 671.02 153.199C673.071 157.224 673.982 161.195 673.755 165.114C673.536 169.003 672.225 172.601 669.82 175.906C667.415 179.212 663.982 182.002 659.521 184.275L644.656 191.849L638.997 180.743L651.242 174.504C653.369 173.42 654.955 172.146 656.002 170.68C657.067 169.204 657.632 167.613 657.695 165.907C657.748 164.182 657.321 162.427 656.411 160.643C655.492 158.839 654.329 157.471 652.921 156.538C651.504 155.587 649.89 155.118 648.079 155.132C646.269 155.145 644.31 155.689 642.203 156.763L635.254 160.303L659.181 207.261L645.085 214.444Z" fill="#F42929"/>
</svg>
