<svg width="723" height="477" viewBox="0 0 723 477" fill="none" xmlns="http://www.w3.org/2000/svg">
<mask id="path-1-inside-1_5_93" fill="white">
<path d="M17.2988 109.849C19.1776 74 49.7623 46.4614 85.6116 48.3402L654.83 78.1717C690.68 80.0505 718.218 110.635 716.34 146.484L704.826 366.183C702.947 402.032 672.362 429.571 636.513 427.692L67.294 397.861C31.4447 395.982 3.90615 365.397 5.78494 329.548L17.2988 109.849Z"/>
</mask>
<path d="M17.2988 109.849C19.1776 74 49.7623 46.4614 85.6116 48.3402L654.83 78.1717C690.68 80.0505 718.218 110.635 716.34 146.484L704.826 366.183C702.947 402.032 672.362 429.571 636.513 427.692L67.294 397.861C31.4447 395.982 3.90615 365.397 5.78494 329.548L17.2988 109.849Z" fill="white"/>
<path d="M-2.67374 108.803C-0.216874 61.9227 39.7785 25.9107 86.6583 28.3676L655.877 58.1991C702.757 60.656 738.769 100.651 736.312 147.531L696.367 145.438C697.668 120.619 678.602 99.445 653.784 98.1443L84.5649 68.3128C59.7461 67.0121 38.5721 86.0772 37.2714 110.896L-2.67374 108.803ZM724.798 367.23C722.341 414.11 682.346 450.121 635.466 447.665L66.2473 417.833C19.3674 415.376 -16.6445 375.381 -14.1877 328.501L25.7575 330.594C24.4568 355.413 43.522 376.587 68.3407 377.888L637.56 407.719C662.378 409.02 683.552 389.955 684.853 365.136L724.798 367.23ZM66.2473 417.833C19.3674 415.376 -16.6445 375.381 -14.1877 328.501L-2.67374 108.803C-0.216874 61.9227 39.7785 25.9107 86.6583 28.3676L84.5649 68.3128C59.7461 67.0121 38.5721 86.0772 37.2714 110.896L25.7575 330.594C24.4568 355.413 43.522 376.587 68.3407 377.888L66.2473 417.833ZM655.877 58.1991C702.757 60.656 738.769 100.651 736.312 147.531L724.798 367.23C722.341 414.11 682.346 450.121 635.466 447.665L637.56 407.719C662.378 409.02 683.552 389.955 684.853 365.136L696.367 145.438C697.668 120.619 678.602 99.445 653.784 98.1443L655.877 58.1991Z" fill="#1A78C2" mask="url(#path-1-inside-1_5_93)"/>
<rect x="513.249" y="133.337" width="109" height="199" rx="12.5" transform="rotate(3 513.249 133.337)" fill="white" stroke="#1A78C2" stroke-width="5"/>
<rect x="519.095" y="184.213" width="57" height="14" rx="7" transform="rotate(3 519.095 184.213)" fill="#D9D9D9"/>
<path d="M514.018 281.08L553.963 283.174C557.824 283.376 560.79 286.67 560.587 290.53V290.53C560.385 294.391 557.091 297.357 553.231 297.154L523.272 295.584C517.757 295.295 513.52 290.59 513.809 285.075L514.018 281.08Z" fill="#D9D9D9"/>
<path d="M515.274 257.113L570.199 259.992C575.714 260.281 579.951 264.986 579.662 270.501L579.505 273.497C579.216 279.012 574.51 283.249 568.995 282.96L514.071 280.082L515.274 257.113Z" fill="#D9D9D9"/>
<path d="M515.536 252.12C515.825 246.605 520.53 242.368 526.046 242.657L565.991 244.75C569.851 244.953 572.817 248.247 572.615 252.107V252.107C572.413 255.968 569.119 258.934 565.258 258.731L515.327 256.114L515.536 252.12Z" fill="#D9D9D9"/>
<rect x="556.092" y="166.125" width="57" height="14" rx="7" transform="rotate(3 556.092 166.125)" fill="#1A78C2"/>
<rect x="548.922" y="302.937" width="57" height="14" rx="7" transform="rotate(3 548.922 302.937)" fill="#1A78C2"/>
<path d="M545.778 229.171C546.024 224.483 550.024 220.882 554.712 221.128L610.136 224.032L609.769 231.023C609.48 236.538 604.775 240.775 599.26 240.486L553.822 238.104C549.134 237.859 545.533 233.859 545.778 229.171V229.171Z" fill="#1A78C2"/>
<path d="M553.632 213.06C553.835 209.2 557.128 206.234 560.989 206.436L600.934 208.53C606.45 208.819 610.686 213.524 610.397 219.039L610.188 223.034L560.256 220.417C556.396 220.215 553.43 216.921 553.632 213.06V213.06Z" fill="#1A78C2"/>
<rect x="532.739" y="325.12" width="50" height="4" rx="2" transform="rotate(3 532.739 325.12)" fill="#1A78C2"/>
<rect x="529.648" y="135.699" width="75" height="12.3613" rx="6.18066" transform="rotate(3 529.648 135.699)" fill="#1A78C2"/>
<rect x="529.648" y="135.699" width="75" height="5.75722" transform="rotate(3 529.648 135.699)" fill="#1A78C2"/>
<rect x="265.922" y="199.985" width="200" height="13" transform="rotate(3 265.922 199.985)" fill="#1A78C2"/>
<path d="M260.605 203.59C259.374 204.699 259.274 206.596 260.383 207.827L278.45 227.892C279.558 229.123 281.455 229.222 282.686 228.114C283.918 227.005 284.017 225.108 282.909 223.877L266.849 206.042L284.685 189.982C285.916 188.874 286.016 186.977 284.907 185.746C283.798 184.514 281.901 184.415 280.67 185.524L260.605 203.59ZM263.768 202.876L262.77 202.824L262.456 208.815L263.454 208.868L263.768 202.876Z" fill="white"/>
<path d="M285.571 204.898C284.34 206.007 284.24 207.904 285.349 209.135L303.415 229.2C304.524 230.431 306.421 230.531 307.652 229.422C308.883 228.314 308.983 226.417 307.874 225.185L291.815 207.35L309.651 191.291C310.882 190.182 310.981 188.285 309.873 187.054C308.764 185.823 306.867 185.723 305.636 186.832L285.571 204.898ZM288.734 204.184L287.735 204.132L287.421 210.124L288.42 210.176L288.734 204.184Z" fill="white"/>
<path d="M310.537 206.207C309.305 207.316 309.206 209.212 310.315 210.444L328.381 230.509C329.49 231.74 331.387 231.839 332.618 230.731C333.849 229.622 333.949 227.725 332.84 226.494L316.781 208.658L334.616 192.599C335.848 191.491 335.947 189.594 334.838 188.362C333.73 187.131 331.833 187.032 330.601 188.14L310.537 206.207ZM313.7 205.493L312.701 205.44L312.387 211.432L313.386 211.485L313.7 205.493Z" fill="white"/>
<path d="M335.502 207.515C334.271 208.624 334.172 210.521 335.28 211.752L353.347 231.817C354.456 233.048 356.352 233.148 357.584 232.039C358.815 230.93 358.914 229.034 357.806 227.802L341.747 209.967L359.582 193.908C360.813 192.799 360.913 190.902 359.804 189.671C358.695 188.44 356.799 188.34 355.567 189.449L335.502 207.515ZM338.665 206.801L337.667 206.749L337.353 212.741L338.351 212.793L338.665 206.801Z" fill="white"/>
<path d="M360.468 208.824C359.237 209.932 359.137 211.829 360.246 213.061L378.313 233.125C379.421 234.357 381.318 234.456 382.549 233.347C383.781 232.239 383.88 230.342 382.771 229.111L366.712 211.275L384.548 195.216C385.779 194.107 385.878 192.21 384.77 190.979C383.661 189.748 381.764 189.649 380.533 190.757L360.468 208.824ZM363.631 208.11L362.632 208.057L362.318 214.049L363.317 214.101L363.631 208.11Z" fill="white"/>
<path d="M385.434 210.132C384.203 211.241 384.103 213.138 385.212 214.369L403.278 234.434C404.387 235.665 406.284 235.764 407.515 234.656C408.746 233.547 408.846 231.65 407.737 230.419L391.678 212.584L409.513 196.524C410.745 195.416 410.844 193.519 409.736 192.288C408.627 191.056 406.73 190.957 405.499 192.066L385.434 210.132ZM388.597 209.418L387.598 209.366L387.284 215.357L388.283 215.41L388.597 209.418Z" fill="white"/>
<path d="M410.4 211.44C409.168 212.549 409.069 214.446 410.178 215.677L428.244 235.742C429.353 236.973 431.25 237.073 432.481 235.964C433.712 234.856 433.812 232.959 432.703 231.727L416.644 213.892L434.479 197.833C435.711 196.724 435.81 194.827 434.701 193.596C433.593 192.365 431.696 192.265 430.465 193.374L410.4 211.44ZM413.563 210.726L412.564 210.674L412.25 216.666L413.249 216.718L413.563 210.726Z" fill="white"/>
<path d="M435.365 212.749C434.134 213.858 434.035 215.754 435.143 216.986L453.21 237.051C454.318 238.282 456.215 238.381 457.447 237.273C458.678 236.164 458.777 234.267 457.669 233.036L441.61 215.2L459.445 199.141C460.676 198.033 460.776 196.136 459.667 194.904C458.558 193.673 456.662 193.574 455.43 194.682L435.365 212.749ZM438.528 212.035L437.53 211.982L437.216 217.974L438.214 218.027L438.528 212.035Z" fill="white"/>
<path d="M460.331 214.057C459.1 215.166 459 217.063 460.109 218.294L478.175 238.359C479.284 239.59 481.181 239.69 482.412 238.581C483.644 237.472 483.743 235.576 482.634 234.344L466.575 216.509L484.411 200.45C485.642 199.341 485.741 197.444 484.633 196.213C483.524 194.982 481.627 194.882 480.396 195.991L460.331 214.057ZM463.494 213.343L462.495 213.291L462.181 219.283L463.18 219.335L463.494 213.343Z" fill="white"/>
<rect x="475.224" y="257.017" width="200" height="13" transform="rotate(-177 475.224 257.017)" fill="#1A78C2"/>
<path d="M480.542 253.412C481.773 252.303 481.872 250.406 480.764 249.175L462.697 229.11C461.589 227.879 459.692 227.779 458.46 228.888C457.229 229.996 457.13 231.893 458.238 233.125L474.297 250.96L456.462 267.019C455.231 268.128 455.131 270.025 456.24 271.256C457.349 272.487 459.245 272.587 460.477 271.478L480.542 253.412ZM477.379 254.126L478.377 254.178L478.691 248.186L477.693 248.134L477.379 254.126Z" fill="white"/>
<path d="M455.576 252.103C456.807 250.995 456.907 249.098 455.798 247.866L437.731 227.801C436.623 226.57 434.726 226.471 433.495 227.579C432.263 228.688 432.164 230.585 433.273 231.816L449.332 249.652L431.496 265.711C430.265 266.819 430.166 268.716 431.274 269.948C432.383 271.179 434.28 271.278 435.511 270.17L455.576 252.103ZM452.413 252.817L453.412 252.87L453.726 246.878L452.727 246.826L452.413 252.817Z" fill="white"/>
<path d="M430.61 250.795C431.842 249.686 431.941 247.789 430.832 246.558L412.766 226.493C411.657 225.262 409.76 225.162 408.529 226.271C407.298 227.38 407.198 229.277 408.307 230.508L424.366 248.343L406.531 264.402C405.299 265.511 405.2 267.408 406.309 268.639C407.417 269.871 409.314 269.97 410.545 268.861L430.61 250.795ZM427.447 251.509L428.446 251.561L428.76 245.569L427.761 245.517L427.447 251.509Z" fill="white"/>
<path d="M405.644 249.486C406.876 248.378 406.975 246.481 405.866 245.25L387.8 225.185C386.691 223.953 384.794 223.854 383.563 224.963C382.332 226.071 382.232 227.968 383.341 229.199L399.4 247.035L381.565 263.094C380.333 264.203 380.234 266.1 381.343 267.331C382.451 268.562 384.348 268.662 385.58 267.553L405.644 249.486ZM402.481 250.2L403.48 250.253L403.794 244.261L402.795 244.209L402.481 250.2Z" fill="white"/>
<path d="M380.679 248.178C381.91 247.069 382.009 245.172 380.901 243.941L362.834 223.876C361.726 222.645 359.829 222.546 358.597 223.654C357.366 224.763 357.267 226.66 358.375 227.891L374.435 245.726L356.599 261.786C355.368 262.894 355.268 264.791 356.377 266.022C357.486 267.254 359.383 267.353 360.614 266.244L380.679 248.178ZM377.516 248.892L378.514 248.944L378.828 242.953L377.83 242.9L377.516 248.892Z" fill="white"/>
<path d="M355.713 246.87C356.944 245.761 357.044 243.864 355.935 242.633L337.869 222.568C336.76 221.337 334.863 221.237 333.632 222.346C332.4 223.454 332.301 225.351 333.41 226.583L349.469 244.418L331.633 260.477C330.402 261.586 330.303 263.483 331.411 264.714C332.52 265.945 334.417 266.045 335.648 264.936L355.713 246.87ZM352.55 247.584L353.549 247.636L353.863 241.644L352.864 241.592L352.55 247.584Z" fill="white"/>
<path d="M330.747 245.561C331.979 244.453 332.078 242.556 330.969 241.324L312.903 221.259C311.794 220.028 309.897 219.929 308.666 221.037C307.435 222.146 307.335 224.043 308.444 225.274L324.503 243.11L306.668 259.169C305.436 260.277 305.337 262.174 306.445 263.406C307.554 264.637 309.451 264.736 310.682 263.628L330.747 245.561ZM327.584 246.275L328.583 246.328L328.897 240.336L327.898 240.284L327.584 246.275Z" fill="white"/>
<path d="M305.782 244.253C307.013 243.144 307.112 241.247 306.004 240.016L287.937 219.951C286.828 218.72 284.932 218.62 283.7 219.729C282.469 220.838 282.37 222.735 283.478 223.966L299.537 241.801L281.702 257.86C280.471 258.969 280.371 260.866 281.48 262.097C282.588 263.329 284.485 263.428 285.717 262.319L305.782 244.253ZM302.619 244.967L303.617 245.019L303.931 239.027L302.933 238.975L302.619 244.967Z" fill="white"/>
<path d="M280.816 242.944C282.047 241.836 282.147 239.939 281.038 238.708L262.971 218.643C261.863 217.411 259.966 217.312 258.735 218.421C257.503 219.529 257.404 221.426 258.512 222.657L274.572 240.493L256.736 256.552C255.505 257.661 255.405 259.558 256.514 260.789C257.623 262.02 259.52 262.12 260.751 261.011L280.816 242.944ZM277.653 243.658L278.651 243.711L278.965 237.719L277.967 237.667L277.653 243.658Z" fill="white"/>
<path d="M56.0001 206C117.034 237.597 162.318 235.723 258 206" stroke="#1A78C2" stroke-width="5"/>
<path d="M62.0001 176C119.106 203.475 161.476 201.846 251 176" stroke="#1A78C2" stroke-width="5"/>
<path d="M73.0001 150C122.25 171.98 158.791 170.677 236 150" stroke="#1A78C2" stroke-width="5"/>
<path d="M99 127C132.84 142.111 157.949 141.215 211 127" stroke="#1A78C2" stroke-width="5"/>
<path d="M73.0001 270C123.459 291.98 160.897 290.677 240 270" stroke="#1A78C2" stroke-width="5"/>
<path d="M89.0001 290C129.186 311.98 159.002 310.677 222 290" stroke="#1A78C2" stroke-width="5"/>
<path d="M57.0001 239C116.825 265.102 161.213 263.553 255 239" stroke="#1A78C2" stroke-width="5"/>
<path d="M256.024 214.283C256.024 270.633 211.252 316.314 156.024 316.314C100.795 316.314 56.0236 270.633 56.0236 214.283C56.0236 157.933 100.795 112.253 156.024 112.253C211.252 112.253 256.024 157.933 256.024 214.283Z" stroke="#1A78C2" stroke-width="10"/>
<rect x="63.9058" y="298.48" width="585.035" height="163.029" rx="19.5" transform="rotate(-27 63.9058 298.48)" fill="white" fill-opacity="0.75" stroke="#F42929" stroke-width="5"/>
<path d="M182.961 322.448L171.096 328.493C170.317 327.356 169.433 326.421 168.442 325.69C167.452 324.959 166.376 324.452 165.215 324.167C164.053 323.882 162.826 323.839 161.533 324.04C160.248 324.216 158.941 324.643 157.612 325.32C155.255 326.521 153.516 328.134 152.396 330.16C151.292 332.177 150.837 334.511 151.032 337.162C151.243 339.805 152.138 342.677 153.718 345.777C155.362 349.005 157.199 351.476 159.229 353.192C161.267 354.884 163.407 355.856 165.648 356.109C167.897 356.338 170.176 355.864 172.486 354.687C173.783 354.026 174.877 353.26 175.768 352.387C176.674 351.507 177.37 350.545 177.854 349.501C178.347 348.433 178.62 347.307 178.674 346.124C178.737 344.916 178.572 343.675 178.182 342.399L190.083 336.425C190.974 338.681 191.429 341.12 191.449 343.74C191.485 346.352 191.04 348.98 190.115 351.623C189.182 354.251 187.676 356.732 185.598 359.066C183.535 361.393 180.834 363.407 177.496 365.107C173.098 367.348 168.667 368.39 164.203 368.234C159.747 368.053 155.567 366.616 151.664 363.922C147.76 361.228 144.45 357.215 141.734 351.883C139.009 346.536 137.72 341.484 137.867 336.726C138.013 331.968 139.335 327.738 141.832 324.034C144.329 320.331 147.737 317.379 152.056 315.178C154.999 313.679 157.929 312.704 160.848 312.253C163.759 311.786 166.563 311.852 169.259 312.451C171.947 313.034 174.461 314.154 176.801 315.812C179.14 317.47 181.193 319.682 182.961 322.448ZM205.474 350.015L180.711 301.415L214.599 284.148L219.459 293.688L197.319 304.969L202.397 314.936L222.805 304.537L227.678 314.101L207.27 324.499L212.36 334.49L234.501 323.209L239.362 332.748L205.474 350.015ZM263.318 259.325L288.081 307.925L278.114 313.003L244.481 294.808L244.173 294.965L258.465 323.015L246.718 329L221.955 280.4L232.064 275.249L265.459 293.505L265.863 293.3L251.595 265.298L263.318 259.325ZM304.398 256.747C303.353 255.087 301.96 254.093 300.218 253.765C298.484 253.413 296.47 253.821 294.176 254.99C292.658 255.764 291.493 256.606 290.682 257.518C289.871 258.429 289.39 259.362 289.238 260.316C289.078 261.254 289.216 262.17 289.652 263.064C289.991 263.808 290.46 264.376 291.058 264.769C291.673 265.153 292.397 265.402 293.232 265.515C294.074 265.604 295.019 265.58 296.066 265.445C297.114 265.31 298.251 265.079 299.48 264.753L304.14 263.574C306.811 262.87 309.285 262.486 311.564 262.421C313.858 262.348 315.936 262.595 317.799 263.16C319.677 263.718 321.34 264.614 322.786 265.85C324.233 267.086 325.46 268.673 326.467 270.61C328.015 273.688 328.582 276.717 328.168 279.698C327.754 282.679 326.405 285.488 324.123 288.126C321.856 290.756 318.697 293.102 314.647 295.166C310.581 297.237 306.727 298.434 303.085 298.755C299.442 299.077 296.15 298.423 293.207 296.794C290.265 295.164 287.803 292.463 285.82 288.691L297.069 282.959C297.962 284.477 299.046 285.569 300.322 286.234C301.597 286.899 303.021 287.17 304.592 287.047C306.179 286.916 307.835 286.411 309.559 285.533C311.141 284.726 312.377 283.828 313.267 282.836C314.173 281.837 314.733 280.804 314.947 279.739C315.161 278.673 315.026 277.646 314.542 276.657C314.059 275.747 313.375 275.109 312.491 274.743C311.599 274.36 310.454 274.226 309.058 274.34C307.669 274.43 305.983 274.72 304.002 275.212L298.319 276.613C293.619 277.792 289.511 277.923 285.994 277.004C282.469 276.07 279.775 273.756 277.913 270.062C276.366 267.064 275.83 264.019 276.307 260.926C276.784 257.834 278.139 254.921 280.374 252.188C282.608 249.456 285.569 247.15 289.255 245.272C293.02 243.353 296.613 242.33 300.035 242.2C303.464 242.047 306.531 242.727 309.234 244.239C311.937 245.751 314.075 248.01 315.646 251.015L304.398 256.747ZM373.072 234.011C375.797 239.358 377.078 244.415 376.915 249.18C376.753 253.946 375.407 258.189 372.879 261.908C370.366 265.62 366.934 268.584 362.583 270.801C358.217 273.026 353.79 274.056 349.302 273.891C344.814 273.727 340.599 272.318 336.656 269.664C332.721 266.986 329.395 262.981 326.679 257.649C323.954 252.302 322.665 247.25 322.811 242.492C322.974 237.726 324.311 233.488 326.824 229.776C329.337 226.065 332.777 223.096 337.143 220.872C341.494 218.655 345.909 217.621 350.389 217.769C354.884 217.91 359.108 219.315 363.059 221.985C367.01 224.655 370.347 228.664 373.072 234.011ZM361.064 240.129C359.452 236.965 357.639 234.521 355.625 232.797C353.626 231.065 351.503 230.065 349.253 229.796C347.02 229.52 344.732 229.978 342.391 231.171C340.065 232.356 338.35 233.937 337.246 235.915C336.141 237.892 335.694 240.203 335.905 242.845C336.131 245.48 337.05 248.379 338.663 251.543C340.275 254.707 342.08 257.155 344.078 258.887C346.092 260.611 348.224 261.607 350.474 261.876C352.723 262.145 355.01 261.687 357.336 260.502C359.677 259.309 361.392 257.727 362.481 255.758C363.586 253.78 364.025 251.474 363.798 248.839C363.588 246.197 362.676 243.293 361.064 240.129ZM392.312 254.817L367.549 206.216L387.625 195.987C391.263 194.133 394.738 193.189 398.049 193.156C401.368 193.099 404.368 193.922 407.049 195.625C409.722 197.312 411.905 199.817 413.598 203.139C415.315 206.509 416.038 209.747 415.768 212.854C415.49 215.945 414.312 218.797 412.236 221.409C410.151 224.006 407.258 226.247 403.556 228.133L390.86 234.602L386.144 225.347L396.657 219.991C398.429 219.088 399.791 218.105 400.744 217.042C401.704 215.954 402.251 214.779 402.385 213.515C402.51 212.236 402.19 210.845 401.424 209.342C400.658 207.839 399.717 206.754 398.6 206.088C397.475 205.405 396.187 205.125 394.734 205.248C393.274 205.354 391.666 205.854 389.91 206.749L384.12 209.7L404.058 248.831L392.312 254.817ZM408.356 218.663L431.776 234.709L418.961 241.238L395.778 225.072L408.356 218.663ZM445.488 184.857C444.443 183.198 443.05 182.204 441.309 181.876C439.575 181.523 437.561 181.932 435.267 183.101C433.748 183.874 432.583 184.717 431.772 185.629C430.961 186.54 430.48 187.473 430.329 188.427C430.169 189.365 430.307 190.281 430.742 191.175C431.082 191.919 431.55 192.487 432.149 192.88C432.763 193.264 433.488 193.513 434.323 193.625C435.165 193.714 436.11 193.691 437.157 193.556C438.204 193.421 439.342 193.19 440.57 192.863L445.23 191.684C447.901 190.981 450.376 190.597 452.654 190.532C454.949 190.459 457.027 190.706 458.889 191.271C460.768 191.829 462.43 192.725 463.877 193.961C465.323 195.197 466.55 196.783 467.558 198.721C469.106 201.798 469.673 204.828 469.259 207.808C468.844 210.789 467.496 213.599 465.213 216.237C462.946 218.866 459.788 221.213 455.738 223.277C451.672 225.348 447.818 226.545 444.175 226.866C440.533 227.188 437.24 226.534 434.298 224.904C431.355 223.275 428.893 220.574 426.911 216.801L438.159 211.07C439.052 212.588 440.137 213.679 441.412 214.345C442.688 215.01 444.111 215.281 445.683 215.158C447.27 215.027 448.925 214.522 450.65 213.643C452.232 212.837 453.468 211.938 454.358 210.947C455.263 209.948 455.823 208.915 456.037 207.849C456.252 206.784 456.117 205.756 455.633 204.767C455.15 203.858 454.466 203.22 453.582 202.853C452.689 202.471 451.545 202.337 450.148 202.451C448.759 202.541 447.074 202.831 445.092 203.323L439.409 204.724C434.71 205.903 430.601 206.033 427.084 205.115C423.559 204.181 420.866 201.867 419.003 198.173C417.456 195.175 416.921 192.13 417.398 189.037C417.874 185.944 419.23 183.032 421.464 180.299C423.699 177.566 426.659 175.261 430.345 173.383C434.111 171.464 437.704 170.44 441.126 170.311C444.555 170.158 447.621 170.838 450.325 172.35C453.028 173.862 455.165 176.12 456.737 179.126L445.488 184.857ZM480.673 209.794L455.91 161.194L467.656 155.209L477.595 174.715L496.746 164.958L486.807 145.451L498.53 139.478L523.293 188.078L511.57 194.051L501.619 174.521L482.468 184.279L492.419 203.809L480.673 209.794ZM517.645 129.738L542.408 178.339L530.661 184.324L505.898 135.724L517.645 129.738ZM549.782 174.581L525.019 125.981L545.095 115.752C548.734 113.898 552.237 113.009 555.605 113.087C558.98 113.141 562.032 114.067 564.762 115.864C567.483 117.646 569.694 120.206 571.395 123.544C573.104 126.898 573.863 130.208 573.674 133.473C573.492 136.714 572.399 139.712 570.395 142.467C568.391 145.222 565.53 147.546 561.812 149.441L549.425 155.752L544.709 146.497L554.913 141.298C556.685 140.395 558.007 139.333 558.88 138.112C559.768 136.882 560.238 135.556 560.291 134.134C560.335 132.697 559.979 131.234 559.221 129.747C558.455 128.244 557.486 127.104 556.313 126.327C555.131 125.534 553.786 125.143 552.278 125.155C550.769 125.166 549.137 125.619 547.381 126.514L541.59 129.464L561.529 168.596L549.782 174.581Z" fill="#F42929"/>
</svg>
