<svg width="509" height="689" viewBox="0 0 509 689" fill="none" xmlns="http://www.w3.org/2000/svg">
<rect x="5" y="262" width="208.26" height="421.729" rx="25" fill="white" stroke="#1A78C2" stroke-width="10"/>
<rect x="21" y="356.326" width="109.13" height="29.6284" rx="10" fill="#D9D9D9"/>
<path d="M21 561.609H100.984C106.507 561.609 110.984 566.086 110.984 571.609V581.238C110.984 586.76 106.507 591.238 100.984 591.238H31C25.4772 591.238 21 586.76 21 581.238V561.609Z" fill="#D9D9D9"/>
<path d="M21 510.817H135.447C140.969 510.817 145.447 515.295 145.447 520.817V549.493C145.447 555.016 140.969 559.493 135.447 559.493H21V510.817Z" fill="#D9D9D9"/>
<path d="M21 489.073C21 483.55 25.4772 479.073 31 479.073H120.13C125.653 479.073 130.13 483.55 130.13 489.073V498.701C130.13 504.224 125.653 508.701 120.13 508.701H21V489.073Z" fill="#D9D9D9"/>
<rect x="89.9243" y="314" width="109.13" height="29.6284" rx="10" fill="#1A78C2"/>
<rect x="89.9243" y="603.935" width="109.13" height="29.6284" rx="10" fill="#1A78C2"/>
<path d="M76.5222 440.397C76.5222 434.875 80.9994 430.397 86.5222 430.397H199.054V456.375C199.054 461.898 194.577 466.375 189.054 466.375H86.5222C80.9994 466.375 76.5222 461.898 76.5222 456.375V440.397Z" fill="#1A78C2"/>
<path d="M89.9243 408.653C89.9243 403.13 94.4015 398.653 99.9243 398.653H189.054C194.577 398.653 199.054 403.13 199.054 408.653V428.281H99.9243C94.4015 428.281 89.9243 423.804 89.9243 418.281V408.653Z" fill="#F42929"/>
<rect x="61.266" y="665.449" width="95.7281" height="8.46527" rx="4.23263" fill="#1A78C2"/>
<rect x="50.6614" y="257" width="118.452" height="26.1605" rx="13.0802" fill="#1A78C2"/>
<rect x="50.6614" y="257" width="118.452" height="12.1841" fill="#1A78C2"/>
<path d="M241 556.476H423.083C437.588 556.476 449.346 568.234 449.346 582.738V582.738C449.346 597.242 437.588 609 423.083 609H271C254.432 609 241 595.569 241 579V556.476Z" fill="#D9D9D9"/>
<path d="M282.669 520.262C282.669 505.758 294.427 494 308.931 494H461.015C477.583 494 491.015 507.431 491.015 524V546.524H308.931C294.427 546.524 282.669 534.766 282.669 520.262V520.262Z" fill="#1A78C2"/>
<rect x="294.986" y="5" width="208.26" height="421.729" rx="25" fill="white" stroke="#1A78C2" stroke-width="10"/>
<rect width="109.13" height="29.6284" rx="10" transform="matrix(-1 0 0 1 489.04 99.3264)" fill="#1A78C2"/>
<path d="M489.04 304.609H409.056C403.533 304.609 399.056 309.086 399.056 314.609V324.238C399.056 329.76 403.533 334.238 409.056 334.238H479.04C484.563 334.238 489.04 329.76 489.04 324.238V304.609Z" fill="#1A78C2"/>
<path d="M489.04 253.818H374.594C369.071 253.818 364.594 258.295 364.594 263.818V292.493C364.594 298.016 369.071 302.493 374.594 302.493H489.04V253.818Z" fill="#1A78C2"/>
<path d="M489.04 232.073C489.04 226.55 484.563 222.073 479.04 222.073H389.91C384.387 222.073 379.91 226.55 379.91 232.073V241.701C379.91 247.224 384.387 251.701 389.91 251.701H489.04V232.073Z" fill="#1A78C2"/>
<path d="M420.116 67C420.116 61.4772 415.639 57 410.116 57H320.986C315.463 57 310.986 61.4772 310.986 67V76.6284C310.986 82.1513 315.463 86.6284 320.986 86.6284H410.116C415.639 86.6284 420.116 82.1513 420.116 76.6284V67Z" fill="#D9D9D9"/>
<rect width="109.13" height="29.6284" rx="10" transform="matrix(-1 0 0 1 420.116 346.935)" fill="#D9D9D9"/>
<path d="M433.518 183.397C433.518 177.875 429.041 173.397 423.518 173.397H310.986V199.375C310.986 204.898 315.463 209.375 320.986 209.375H423.518C429.041 209.375 433.518 204.898 433.518 199.375V183.397Z" fill="#D9D9D9"/>
<path d="M420.116 151.653C420.116 146.13 415.639 141.653 410.116 141.653H320.986C315.463 141.653 310.986 146.13 310.986 151.653V171.281H410.116C415.639 171.281 420.116 166.804 420.116 161.281V151.653Z" fill="#F42929"/>
<rect x="351.252" y="408.449" width="95.7281" height="8.46527" rx="4.23263" fill="#1A78C2"/>
<rect x="340.647" width="118.452" height="26.1605" rx="13.0802" fill="#1A78C2"/>
<rect x="340.647" width="118.452" height="12.1841" fill="#1A78C2"/>
<rect x="0.000244141" y="100" width="23" height="108" rx="11.5" fill="#F42929"/>
<rect x="33.0002" y="149" width="85" height="16" rx="8" fill="#F42929"/>
<rect x="102" y="162" width="62" height="16" rx="8" transform="rotate(-90 102 162)" fill="#F42929"/>
<rect x="199.84" y="95" width="10" height="20" rx="5" transform="rotate(20 199.84 95)" fill="#F42929"/>
<path d="M60.621 45L196.876 94.5929L192.386 106.931C189.552 114.716 180.945 118.73 173.16 115.896L65.0953 76.5639C57.3107 73.7305 53.2969 65.1228 56.1302 57.3382L60.621 45Z" fill="#F42929"/>
<path d="M64.8498 33.2898C67.6909 25.4838 76.3351 21.4733 84.1301 24.3447L223.379 75.6396L196.634 95.1661L60.379 45.5732L64.8498 33.2898Z" fill="#F42929"/>
</svg>
